<mxfile host="app.diagrams.net" modified="2021-11-29T04:22:51.135Z" agent="5.0 (Windows)" etag="8JeJ3z7sYIoC4wzhfFGO" version="15.8.6" type="github">
  <diagram id="75NLMeTjoz7wIbmcaJ3J" name="Page-1">
    <mxGraphModel dx="644" dy="986" grid="0" gridSize="10" guides="1" tooltips="1" connect="1" arrows="1" fold="1" page="1" pageScale="1" pageWidth="827" pageHeight="1169" math="0" shadow="0">
      <root>
        <mxCell id="0" />
        <mxCell id="1" parent="0" />
        <mxCell id="fo235NaeVIAO6eDBmoJN-56" style="edgeStyle=orthogonalEdgeStyle;rounded=0;orthogonalLoop=1;jettySize=auto;html=1;fontSize=16;startArrow=classic;startFill=1;" edge="1" parent="1" source="fo235NaeVIAO6eDBmoJN-7" target="fo235NaeVIAO6eDBmoJN-8">
          <mxGeometry relative="1" as="geometry" />
        </mxCell>
        <mxCell id="fo235NaeVIAO6eDBmoJN-7" value="&lt;div&gt;Интерфейс к SerialPort&lt;/div&gt;" style="rounded=0;whiteSpace=wrap;html=1;fontSize=16;fontStyle=4" vertex="1" parent="1">
          <mxGeometry x="560" y="400" width="200" height="55" as="geometry" />
        </mxCell>
        <mxCell id="fo235NaeVIAO6eDBmoJN-57" style="edgeStyle=orthogonalEdgeStyle;rounded=0;orthogonalLoop=1;jettySize=auto;html=1;entryX=0.5;entryY=1;entryDx=0;entryDy=0;fontSize=16;startArrow=classic;startFill=1;" edge="1" parent="1" source="fo235NaeVIAO6eDBmoJN-8" target="fo235NaeVIAO6eDBmoJN-9">
          <mxGeometry relative="1" as="geometry" />
        </mxCell>
        <mxCell id="fo235NaeVIAO6eDBmoJN-8" value="Протокол транспортного уровня" style="rounded=0;whiteSpace=wrap;html=1;fontSize=16;fontStyle=4" vertex="1" parent="1">
          <mxGeometry x="520" y="280" width="280" height="55" as="geometry" />
        </mxCell>
        <mxCell id="fo235NaeVIAO6eDBmoJN-9" value="Протокол прикладного уровня" style="rounded=0;whiteSpace=wrap;html=1;fontSize=16;fontStyle=4" vertex="1" parent="1">
          <mxGeometry x="520" y="160" width="280" height="55" as="geometry" />
        </mxCell>
        <mxCell id="fo235NaeVIAO6eDBmoJN-49" style="edgeStyle=orthogonalEdgeStyle;rounded=0;orthogonalLoop=1;jettySize=auto;html=1;entryX=0;entryY=0.671;entryDx=0;entryDy=0;fontSize=16;startArrow=classic;startFill=1;entryPerimeter=0;" edge="1" parent="1" source="fo235NaeVIAO6eDBmoJN-10" target="fo235NaeVIAO6eDBmoJN-9">
          <mxGeometry relative="1" as="geometry">
            <Array as="points">
              <mxPoint x="410" y="303" />
              <mxPoint x="410" y="197" />
            </Array>
          </mxGeometry>
        </mxCell>
        <mxCell id="fo235NaeVIAO6eDBmoJN-61" style="edgeStyle=orthogonalEdgeStyle;rounded=0;orthogonalLoop=1;jettySize=auto;html=1;fontSize=16;startArrow=classic;startFill=1;endArrow=none;endFill=0;" edge="1" parent="1" source="fo235NaeVIAO6eDBmoJN-10">
          <mxGeometry relative="1" as="geometry">
            <mxPoint x="20" y="302.5" as="targetPoint" />
          </mxGeometry>
        </mxCell>
        <mxCell id="fo235NaeVIAO6eDBmoJN-10" value="Форма настроек ТА" style="rounded=0;whiteSpace=wrap;html=1;fontSize=16;fontStyle=4" vertex="1" parent="1">
          <mxGeometry x="40" y="275" width="230" height="55" as="geometry" />
        </mxCell>
        <mxCell id="fo235NaeVIAO6eDBmoJN-47" style="edgeStyle=orthogonalEdgeStyle;rounded=0;orthogonalLoop=1;jettySize=auto;html=1;fontSize=16;startArrow=classic;startFill=1;entryX=0;entryY=0.25;entryDx=0;entryDy=0;" edge="1" parent="1" source="fo235NaeVIAO6eDBmoJN-11" target="fo235NaeVIAO6eDBmoJN-9">
          <mxGeometry relative="1" as="geometry">
            <mxPoint x="510" y="170" as="targetPoint" />
            <Array as="points">
              <mxPoint x="395" y="240" />
              <mxPoint x="395" y="174" />
              <mxPoint x="510" y="174" />
            </Array>
          </mxGeometry>
        </mxCell>
        <mxCell id="fo235NaeVIAO6eDBmoJN-60" style="edgeStyle=orthogonalEdgeStyle;rounded=0;orthogonalLoop=1;jettySize=auto;html=1;fontSize=16;startArrow=classic;startFill=1;endArrow=none;endFill=0;" edge="1" parent="1" source="fo235NaeVIAO6eDBmoJN-11">
          <mxGeometry relative="1" as="geometry">
            <mxPoint x="20" y="227.5" as="targetPoint" />
          </mxGeometry>
        </mxCell>
        <mxCell id="fo235NaeVIAO6eDBmoJN-11" value="Форма горячих клавиш" style="rounded=0;whiteSpace=wrap;html=1;fontSize=16;fontStyle=4" vertex="1" parent="1">
          <mxGeometry x="40" y="200" width="230" height="55" as="geometry" />
        </mxCell>
        <mxCell id="fo235NaeVIAO6eDBmoJN-44" style="edgeStyle=orthogonalEdgeStyle;rounded=0;orthogonalLoop=1;jettySize=auto;html=1;fontSize=16;startArrow=classic;startFill=1;entryX=0;entryY=0.25;entryDx=0;entryDy=0;" edge="1" parent="1" source="fo235NaeVIAO6eDBmoJN-12" target="fo235NaeVIAO6eDBmoJN-9">
          <mxGeometry relative="1" as="geometry">
            <mxPoint x="510" y="170" as="targetPoint" />
            <Array as="points">
              <mxPoint x="395" y="140" />
              <mxPoint x="395" y="174" />
              <mxPoint x="510" y="174" />
            </Array>
          </mxGeometry>
        </mxCell>
        <mxCell id="fo235NaeVIAO6eDBmoJN-59" style="edgeStyle=orthogonalEdgeStyle;rounded=0;orthogonalLoop=1;jettySize=auto;html=1;fontSize=16;startArrow=classic;startFill=1;endArrow=none;endFill=0;" edge="1" parent="1" source="fo235NaeVIAO6eDBmoJN-12">
          <mxGeometry relative="1" as="geometry">
            <mxPoint x="20" y="147.5" as="targetPoint" />
          </mxGeometry>
        </mxCell>
        <mxCell id="fo235NaeVIAO6eDBmoJN-12" value="Форма журнала вызовов" style="rounded=0;whiteSpace=wrap;html=1;fontSize=16;fontStyle=4" vertex="1" parent="1">
          <mxGeometry x="40" y="120" width="230" height="55" as="geometry" />
        </mxCell>
        <mxCell id="fo235NaeVIAO6eDBmoJN-40" style="edgeStyle=orthogonalEdgeStyle;rounded=0;orthogonalLoop=1;jettySize=auto;html=1;fontSize=16;startArrow=classic;startFill=1;entryX=0.521;entryY=0.007;entryDx=0;entryDy=0;entryPerimeter=0;" edge="1" parent="1" source="fo235NaeVIAO6eDBmoJN-13" target="fo235NaeVIAO6eDBmoJN-15">
          <mxGeometry relative="1" as="geometry">
            <mxPoint x="320" y="700" as="targetPoint" />
            <Array as="points">
              <mxPoint x="320" y="60" />
            </Array>
          </mxGeometry>
        </mxCell>
        <mxCell id="fo235NaeVIAO6eDBmoJN-13" value="Форма телефонной книги" style="rounded=0;whiteSpace=wrap;html=1;fontSize=16;fontStyle=4" vertex="1" parent="1">
          <mxGeometry x="40" y="40" width="230" height="55" as="geometry" />
        </mxCell>
        <mxCell id="fo235NaeVIAO6eDBmoJN-51" style="edgeStyle=orthogonalEdgeStyle;rounded=0;orthogonalLoop=1;jettySize=auto;html=1;fontSize=16;startArrow=classic;startFill=1;entryX=0.5;entryY=0;entryDx=0;entryDy=0;" edge="1" parent="1" source="fo235NaeVIAO6eDBmoJN-14" target="fo235NaeVIAO6eDBmoJN-16">
          <mxGeometry relative="1" as="geometry">
            <Array as="points">
              <mxPoint x="155" y="790" />
              <mxPoint x="255" y="790" />
            </Array>
          </mxGeometry>
        </mxCell>
        <mxCell id="fo235NaeVIAO6eDBmoJN-14" value="Диалог настроек приложения" style="rounded=0;whiteSpace=wrap;html=1;fontSize=16;fontStyle=4" vertex="1" parent="1">
          <mxGeometry x="40" y="520" width="230" height="55" as="geometry" />
        </mxCell>
        <mxCell id="fo235NaeVIAO6eDBmoJN-15" value="Модуль импорта/экспорта настроек" style="rounded=0;whiteSpace=wrap;html=1;fontSize=16;fontStyle=4" vertex="1" parent="1">
          <mxGeometry x="200" y="710" width="230" height="60" as="geometry" />
        </mxCell>
        <mxCell id="fo235NaeVIAO6eDBmoJN-58" style="edgeStyle=orthogonalEdgeStyle;rounded=0;orthogonalLoop=1;jettySize=auto;html=1;fontSize=16;startArrow=none;startFill=0;entryX=0;entryY=0.5;entryDx=0;entryDy=0;" edge="1" parent="1" source="fo235NaeVIAO6eDBmoJN-16" target="fo235NaeVIAO6eDBmoJN-13">
          <mxGeometry relative="1" as="geometry">
            <mxPoint x="-80" y="650.0000000000002" as="targetPoint" />
            <Array as="points">
              <mxPoint x="20" y="858" />
              <mxPoint x="20" y="68" />
            </Array>
          </mxGeometry>
        </mxCell>
        <mxCell id="fo235NaeVIAO6eDBmoJN-62" style="edgeStyle=orthogonalEdgeStyle;rounded=0;orthogonalLoop=1;jettySize=auto;html=1;entryX=0;entryY=0.5;entryDx=0;entryDy=0;fontSize=16;startArrow=classic;startFill=1;endArrow=none;endFill=0;" edge="1" parent="1" source="fo235NaeVIAO6eDBmoJN-16" target="fo235NaeVIAO6eDBmoJN-7">
          <mxGeometry relative="1" as="geometry">
            <Array as="points">
              <mxPoint x="512" y="857" />
              <mxPoint x="512" y="428" />
            </Array>
          </mxGeometry>
        </mxCell>
        <mxCell id="fo235NaeVIAO6eDBmoJN-16" value="&lt;div&gt;Хранилище настроек приложения&lt;/div&gt;" style="rounded=0;whiteSpace=wrap;html=1;fontSize=16;fontStyle=4" vertex="1" parent="1">
          <mxGeometry x="140" y="830" width="230" height="55" as="geometry" />
        </mxCell>
        <mxCell id="fo235NaeVIAO6eDBmoJN-52" style="edgeStyle=orthogonalEdgeStyle;rounded=0;orthogonalLoop=1;jettySize=auto;html=1;entryX=1;entryY=0.5;entryDx=0;entryDy=0;fontSize=16;startArrow=classic;startFill=1;" edge="1" parent="1" source="fo235NaeVIAO6eDBmoJN-18" target="fo235NaeVIAO6eDBmoJN-15">
          <mxGeometry relative="1" as="geometry">
            <Array as="points">
              <mxPoint x="275" y="900" />
              <mxPoint x="450" y="900" />
              <mxPoint x="450" y="740" />
            </Array>
          </mxGeometry>
        </mxCell>
        <mxCell id="fo235NaeVIAO6eDBmoJN-54" style="edgeStyle=orthogonalEdgeStyle;rounded=0;orthogonalLoop=1;jettySize=auto;html=1;fontSize=16;startArrow=classic;startFill=1;entryX=0.5;entryY=1;entryDx=0;entryDy=0;" edge="1" parent="1" source="fo235NaeVIAO6eDBmoJN-18" target="fo235NaeVIAO6eDBmoJN-16">
          <mxGeometry relative="1" as="geometry">
            <mxPoint x="130" y="900" as="targetPoint" />
            <Array as="points">
              <mxPoint x="255" y="980" />
              <mxPoint x="255" y="980" />
            </Array>
          </mxGeometry>
        </mxCell>
        <mxCell id="fo235NaeVIAO6eDBmoJN-18" value="&lt;span&gt;Файловая система&lt;/span&gt;" style="rounded=0;whiteSpace=wrap;html=1;fontSize=16;fontStyle=4" vertex="1" parent="1">
          <mxGeometry x="160" y="960" width="230" height="60" as="geometry" />
        </mxCell>
        <mxCell id="fo235NaeVIAO6eDBmoJN-53" style="edgeStyle=orthogonalEdgeStyle;rounded=0;orthogonalLoop=1;jettySize=auto;html=1;fontSize=16;startArrow=classic;startFill=1;entryX=0.5;entryY=1;entryDx=0;entryDy=0;" edge="1" parent="1" source="fo235NaeVIAO6eDBmoJN-19" target="fo235NaeVIAO6eDBmoJN-7">
          <mxGeometry relative="1" as="geometry">
            <mxPoint x="660" y="460" as="targetPoint" />
          </mxGeometry>
        </mxCell>
        <mxCell id="fo235NaeVIAO6eDBmoJN-19" value="WINAPI SerialPort" style="rounded=0;whiteSpace=wrap;html=1;fontSize=16;fontStyle=4" vertex="1" parent="1">
          <mxGeometry x="490" y="960" width="230" height="60" as="geometry" />
        </mxCell>
        <mxCell id="fo235NaeVIAO6eDBmoJN-20" value="" style="endArrow=none;dashed=1;html=1;rounded=0;" edge="1" parent="1">
          <mxGeometry width="50" height="50" relative="1" as="geometry">
            <mxPoint x="360" y="600" as="sourcePoint" />
            <mxPoint x="360" as="targetPoint" />
          </mxGeometry>
        </mxCell>
        <mxCell id="fo235NaeVIAO6eDBmoJN-24" value="" style="endArrow=none;dashed=1;html=1;rounded=0;" edge="1" parent="1">
          <mxGeometry width="50" height="50" relative="1" as="geometry">
            <mxPoint y="600" as="sourcePoint" />
            <mxPoint x="360" y="600" as="targetPoint" />
          </mxGeometry>
        </mxCell>
        <mxCell id="fo235NaeVIAO6eDBmoJN-25" value="" style="endArrow=none;dashed=1;html=1;rounded=0;" edge="1" parent="1">
          <mxGeometry width="50" height="50" relative="1" as="geometry">
            <mxPoint x="480" y="520" as="sourcePoint" />
            <mxPoint x="830" y="520" as="targetPoint" />
          </mxGeometry>
        </mxCell>
        <mxCell id="fo235NaeVIAO6eDBmoJN-26" value="" style="endArrow=none;dashed=1;html=1;rounded=0;" edge="1" parent="1">
          <mxGeometry width="50" height="50" relative="1" as="geometry">
            <mxPoint x="480" y="520" as="sourcePoint" />
            <mxPoint x="480" as="targetPoint" />
          </mxGeometry>
        </mxCell>
        <mxCell id="fo235NaeVIAO6eDBmoJN-27" value="" style="endArrow=none;dashed=1;html=1;rounded=0;" edge="1" parent="1">
          <mxGeometry width="50" height="50" relative="1" as="geometry">
            <mxPoint x="80" y="1170" as="sourcePoint" />
            <mxPoint x="800" y="1170" as="targetPoint" />
            <Array as="points">
              <mxPoint x="80" y="920" />
              <mxPoint x="800" y="920" />
            </Array>
          </mxGeometry>
        </mxCell>
        <mxCell id="fo235NaeVIAO6eDBmoJN-30" value="Графический пользовательский интерфейс" style="text;html=1;strokeColor=none;fillColor=none;spacing=5;spacingTop=-20;whiteSpace=wrap;overflow=hidden;rounded=0;fontSize=16;" vertex="1" parent="1">
          <mxGeometry x="10" y="20" width="410" height="10" as="geometry" />
        </mxCell>
        <mxCell id="fo235NaeVIAO6eDBmoJN-42" value="" style="endArrow=classic;html=1;rounded=0;fontSize=16;entryX=1;entryY=0.5;entryDx=0;entryDy=0;" edge="1" parent="1">
          <mxGeometry width="50" height="50" relative="1" as="geometry">
            <mxPoint x="320" y="215.49999999999997" as="sourcePoint" />
            <mxPoint x="270" y="214.99999999999997" as="targetPoint" />
          </mxGeometry>
        </mxCell>
        <mxCell id="fo235NaeVIAO6eDBmoJN-43" value="" style="endArrow=classic;html=1;rounded=0;fontSize=16;entryX=1;entryY=0.5;entryDx=0;entryDy=0;" edge="1" parent="1">
          <mxGeometry width="50" height="50" relative="1" as="geometry">
            <mxPoint x="320" y="160.5" as="sourcePoint" />
            <mxPoint x="270" y="160" as="targetPoint" />
          </mxGeometry>
        </mxCell>
        <mxCell id="fo235NaeVIAO6eDBmoJN-46" style="edgeStyle=orthogonalEdgeStyle;rounded=0;orthogonalLoop=1;jettySize=auto;html=1;entryX=0.465;entryY=0.023;entryDx=0;entryDy=0;entryPerimeter=0;fontSize=16;startArrow=classic;startFill=1;" edge="1" parent="1" source="fo235NaeVIAO6eDBmoJN-13" target="fo235NaeVIAO6eDBmoJN-9">
          <mxGeometry relative="1" as="geometry">
            <mxPoint x="270" y="80.02857142857141" as="sourcePoint" />
            <mxPoint x="650.2" y="161.265" as="targetPoint" />
            <Array as="points">
              <mxPoint x="650" y="73" />
            </Array>
          </mxGeometry>
        </mxCell>
        <mxCell id="fo235NaeVIAO6eDBmoJN-55" value="Среда ОС Windows" style="text;html=1;strokeColor=none;fillColor=none;spacing=5;spacingTop=-20;whiteSpace=wrap;overflow=hidden;rounded=0;fontSize=16;" vertex="1" parent="1">
          <mxGeometry x="80" y="930" width="190" height="10" as="geometry" />
        </mxCell>
        <mxCell id="fo235NaeVIAO6eDBmoJN-63" value="Модули обмена данными" style="text;html=1;strokeColor=none;fillColor=none;spacing=5;spacingTop=-20;whiteSpace=wrap;overflow=hidden;rounded=0;fontSize=16;" vertex="1" parent="1">
          <mxGeometry x="482" y="14" width="246" height="16" as="geometry" />
        </mxCell>
      </root>
    </mxGraphModel>
  </diagram>
</mxfile>
